<svg width="1024" height="1024" viewBox="0 0 1024 1024" fill="none" xmlns="http://www.w3.org/2000/svg">
<g clip-path="url(#clip0_303_26)">
<path d="M375.281 808C385.738 808 393.515 802.64 406.118 790.848L502.919 702.409H684.189C764.096 702.409 807 658.457 807 579.936V374.653C807 296.13 764.096 251.911 684.189 251.911H338.812C258.904 251.911 216 295.862 216 374.653V579.936C216 658.726 258.904 702.409 338.812 702.409H351.415V780.395C351.415 797.012 359.996 808 375.281 808ZM352.756 470.594C332.377 470.594 322.187 460.947 322.187 440.847V385.908C322.187 366.077 332.377 356.429 352.756 356.429H473.96C493.803 356.429 503.993 366.077 503.993 385.908V440.847C503.993 460.947 493.803 470.594 473.96 470.594H352.756ZM386.007 597.891C366.164 597.891 356.242 587.976 356.242 567.877V530.624C356.242 510.794 366.164 500.879 386.007 500.879H490.317C510.16 500.879 520.081 510.794 520.081 530.624V567.877C520.081 587.976 510.16 597.891 490.317 597.891H386.007ZM581.22 581.275C561.109 581.275 550.919 571.629 550.919 551.53V404.936C550.919 385.104 561.109 375.188 581.22 375.188H667.294C687.407 375.188 697.328 385.104 697.328 404.936V551.53C697.328 571.629 687.407 581.275 667.294 581.275H581.22Z" fill="#FE5F55" fill-opacity="0.85"/>
</g>
<defs>
<clipPath id="clip0_303_26">
<rect width="591" height="592" fill="white" transform="translate(216 216)"/>
</clipPath>
</defs>
</svg>
